<mxfile host="app.diagrams.net" modified="2020-08-08T05:28:11.239Z" agent="5.0 (Windows)" etag="xj2KUbSF1XDPiIeBcZMo" version="13.6.1" type="github">
  <diagram id="1M_zN9w_5yNfu3xsrfup" name="Page-1">
    <mxGraphModel dx="1102" dy="611" grid="1" gridSize="10" guides="1" tooltips="1" connect="1" arrows="1" fold="1" page="1" pageScale="1" pageWidth="850" pageHeight="1100" math="0" shadow="0">
      <root>
        <mxCell id="0" />
        <mxCell id="1" parent="0" />
        <mxCell id="AQl_kSmrogJZL-bQeT---1" value="" style="shape=hexagon;perimeter=hexagonPerimeter2;whiteSpace=wrap;html=1;fixedSize=1;" vertex="1" parent="1">
          <mxGeometry x="360" y="270" width="120" height="80" as="geometry" />
        </mxCell>
      </root>
    </mxGraphModel>
  </diagram>
</mxfile>
